<svg width="20" height="20" viewBox="0 0 20 20" fill="none" xmlns="http://www.w3.org/2000/svg">
<g clip-path="url(#clip0)">
<path d="M0 12.2578V14.903C0 15.9997 0.870968 16.7739 1.93548 16.7739H18.0645C19.129 16.7739 20 15.9997 20 14.903V12.2578H0Z" fill="#1EB53A"/>
<path d="M18.0645 3.22656H1.93548C0.870968 3.22656 0 4.00076 0 5.09753V7.74269H20V5.09753C20 4.00076 19.129 3.22656 18.0645 3.22656Z" fill="#0099B5"/>
<path d="M20 7.74219H0V12.2583H20V7.74219Z" fill="white"/>
<path d="M20 7.41797H0V7.74055H20V7.41797Z" fill="#CE1126"/>
<path d="M7.25822 7.74055H20.0002V7.41797H6.83887L7.25822 7.74055Z" fill="#A8071E"/>
<path d="M20 12.2578H0V12.5804H20V12.2578Z" fill="#CE1126"/>
<path d="M12.71 12.2578L13.0971 12.5804H20.0003V12.2578H12.71Z" fill="#A8071E"/>
<path d="M3.03267 4.12991C2.96815 4.12991 2.90363 4.09766 2.83912 4.09766C2.1617 4.09766 1.58105 4.64604 1.58105 5.35572C1.58105 6.0654 2.12944 6.61379 2.83912 6.61379C2.90363 6.61379 2.96815 6.61379 3.03267 6.58153C2.45202 6.48476 2.00041 5.96863 2.00041 5.35572C2.00041 4.71056 2.45202 4.22669 3.03267 4.12991Z" fill="white"/>
<path d="M3.64579 6.25895L3.58128 6.09766L3.51676 6.25895H3.35547L3.4845 6.38798L3.45224 6.54927L3.58128 6.45249L3.74257 6.54927L3.67805 6.38798L3.83934 6.25895H3.64579Z" fill="white"/>
<path d="M4.64579 6.25895L4.58127 6.09766L4.51676 6.25895H4.35547L4.4845 6.38798L4.45224 6.54927L4.58127 6.45249L4.74257 6.54927L4.67805 6.38798L4.80708 6.25895H4.64579Z" fill="white"/>
<path d="M5.64579 6.25895L5.58128 6.09766L5.51676 6.25895H5.35547L5.4845 6.38798L5.41998 6.54927L5.58128 6.45249L5.74257 6.54927L5.67805 6.38798L5.80708 6.25895H5.64579Z" fill="white"/>
<path d="M6.64579 6.25895L6.58127 6.09766L6.51676 6.25895H6.35547L6.4845 6.38798L6.41998 6.54927L6.58127 6.45249L6.74256 6.54927L6.67805 6.38798L6.80708 6.25895H6.64579Z" fill="white"/>
<path d="M7.64579 6.25895L7.58128 6.09766L7.51676 6.25895H7.35547L7.4845 6.38798L7.41999 6.54927L7.58128 6.45249L7.71031 6.54927L7.67805 6.38798L7.80708 6.25895H7.64579Z" fill="white"/>
<path d="M4.58127 5.09766L4.54902 5.25895H4.35547L4.51676 5.38798L4.45224 5.54927L4.58127 5.45249L4.74257 5.54927L4.67805 5.38798L4.83934 5.25895H4.64579L4.58127 5.09766Z" fill="white"/>
<path d="M5.58128 5.09766L5.54902 5.25895H5.35547L5.51676 5.38798L5.45224 5.54927L5.58128 5.45249L5.74257 5.54927L5.67805 5.38798L5.83934 5.25895H5.64579L5.58128 5.09766Z" fill="white"/>
<path d="M6.58127 5.09766L6.54902 5.25895H6.35547L6.51676 5.38798L6.45224 5.54927L6.58127 5.45249L6.74256 5.54927L6.67805 5.38798L6.83934 5.25895H6.64579L6.58127 5.09766Z" fill="white"/>
<path d="M7.64579 5.25895L7.58128 5.09766L7.54902 5.25895H7.35547L7.4845 5.38798L7.45224 5.54927L7.58128 5.45249L7.74257 5.54927L7.67805 5.38798L7.83934 5.25895H7.64579Z" fill="white"/>
<path d="M5.48453 4.38798L5.42002 4.54927L5.58131 4.45249L5.71034 4.54927L5.67808 4.38798L5.80711 4.25895H5.64582L5.58131 4.09766L5.51679 4.25895H5.32324L5.48453 4.38798Z" fill="white"/>
<path d="M6.48453 4.38798L6.42002 4.54927L6.58131 4.45249L6.71034 4.54927L6.67808 4.38798L6.80711 4.25895H6.64582L6.58131 4.09766L6.51679 4.25895H6.32324L6.48453 4.38798Z" fill="white"/>
<path d="M7.48453 4.38798L7.42002 4.54927L7.58131 4.45249L7.71034 4.54927L7.67808 4.38798L7.80711 4.25895H7.61357L7.58131 4.09766L7.51679 4.25895H7.32324L7.48453 4.38798Z" fill="white"/>
</g>
<defs>
<clipPath id="clip0">
<rect width="20" height="20" fill="white"/>
</clipPath>
</defs>
</svg>
