<svg width="20" height="14" viewBox="0 0 20 14" fill="none" xmlns="http://www.w3.org/2000/svg">
<g clip-path="url(#clip0)">
<path d="M20 0.332031H0V13.6655H20V0.332031Z" fill="#F0F0F0"/>
<path d="M11.25 0.332031H8.75V5.74867H0V8.24867H8.75V13.6653H11.25V8.24867H20V5.74867H11.25V0.332031Z" fill="#D80027"/>
<path d="M15.3818 9.31641L19.9996 11.8819V9.31641H15.3818Z" fill="#0052B4"/>
<path d="M12.1738 9.31641L19.9999 13.6642V12.4348L14.3869 9.31641H12.1738Z" fill="#0052B4"/>
<path d="M17.9153 13.6666L12.1738 10.4766V13.6666H17.9153Z" fill="#0052B4"/>
<path d="M12.1738 9.31641L19.9999 13.6642V12.4348L14.3869 9.31641H12.1738Z" fill="#F0F0F0"/>
<path d="M12.1738 9.31641L19.9999 13.6642V12.4348L14.3869 9.31641H12.1738Z" fill="#D80027"/>
<path d="M3.52895 9.32031L0 11.2809V9.32031H3.52895Z" fill="#0052B4"/>
<path d="M7.82547 9.875V13.67H0.995117L7.82547 9.875Z" fill="#0052B4"/>
<path d="M5.61301 9.31641L0 12.4348V13.6642L7.82609 9.31641H5.61301Z" fill="#D80027"/>
<path d="M4.61777 4.67875L0 2.11328V4.67875H4.61777Z" fill="#0052B4"/>
<path d="M7.82609 4.67984L0 0.332031V1.56148L5.61301 4.67984H7.82609Z" fill="#0052B4"/>
<path d="M2.08398 0.332031L7.82547 3.52203V0.332031H2.08398Z" fill="#0052B4"/>
<path d="M7.82609 4.67984L0 0.332031V1.56148L5.61301 4.67984H7.82609Z" fill="#F0F0F0"/>
<path d="M7.82609 4.67984L0 0.332031V1.56148L5.61301 4.67984H7.82609Z" fill="#D80027"/>
<path d="M16.4707 4.6832L19.9996 2.72266V4.6832H16.4707Z" fill="#0052B4"/>
<path d="M12.1738 4.12699V0.332031H19.0042L12.1738 4.12699Z" fill="#0052B4"/>
<path d="M14.3869 4.67984L19.9999 1.56148V0.332031L12.1738 4.67984H14.3869Z" fill="#D80027"/>
</g>
<defs>
<clipPath id="clip0">
<rect y="0.332031" width="20" height="13.3377" rx="2" fill="white"/>
</clipPath>
</defs>
</svg>
