<?xml version="1.0" standalone="no"?>
<!DOCTYPE svg PUBLIC "-//W3C//DTD SVG 20010904//EN"
 "http://www.w3.org/TR/2001/REC-SVG-20010904/DTD/svg10.dtd">
<svg version="1.0" xmlns="http://www.w3.org/2000/svg"
 width="1280.000000pt" height="1280.000000pt" viewBox="0 0 1280.000000 1280.000000"
 preserveAspectRatio="xMidYMid meet">
<metadata>
Created by potrace 1.15, written by Peter Selinger 2001-2017
</metadata>
<g transform="translate(0.000000,1280.000000) scale(0.100000,-0.100000)"
fill="#000000" stroke="none">
<path d="M6504 12552 c-12 -20 -92 -118 -178 -217 -191 -219 -218 -267 -224
-394 -3 -64 1 -108 17 -174 25 -107 25 -107 4 -103 -74 14 -232 -43 -296 -108
-33 -33 -77 -113 -77 -140 0 -18 -14 -28 -85 -56 -119 -47 -205 -126 -258
-238 -30 -64 -32 -73 -32 -187 0 -139 15 -194 70 -264 l36 -45 -55 -55 c-153
-155 -145 -340 24 -598 l40 -63 -50 0 c-43 0 -56 -5 -86 -33 -31 -28 -37 -41
-42 -85 -4 -50 -3 -54 32 -87 66 -62 137 -39 212 70 l39 58 -4 131 c-12 325
-9 344 65 420 29 30 90 60 102 50 2 -1 -15 -58 -39 -126 -38 -109 -43 -136
-47 -236 -4 -103 -2 -119 23 -190 15 -42 40 -100 56 -128 16 -28 29 -54 29
-56 0 -3 -37 -8 -82 -11 -98 -8 -162 -36 -237 -103 -69 -62 -103 -135 -109
-233 -4 -74 -2 -81 58 -236 86 -222 100 -263 94 -280 -5 -11 -11 -12 -24 -5
-36 19 -89 12 -115 -16 l-25 -27 0 -226 1 -226 70 75 c166 178 218 257 239
367 13 64 10 114 -8 172 l-11 34 60 -7 c131 -15 321 78 487 238 l73 70 57 -57
57 -57 -159 -152 -158 -153 148 -153 147 -153 -89 -90 c-49 -49 -92 -89 -96
-89 -4 0 -71 65 -149 145 -79 80 -146 144 -151 143 -4 -2 -103 -95 -219 -207
l-210 -204 203 -206 c112 -113 206 -206 209 -206 4 0 75 65 159 144 l151 144
95 -94 94 -94 -115 -115 -115 -115 -7 -371 -6 -371 61 -6 c48 -5 142 -32 142
-41 0 -1 -31 -33 -68 -71 -47 -49 -81 -94 -107 -149 -35 -70 -40 -88 -43 -172
l-4 -93 -64 -25 c-35 -14 -66 -26 -69 -26 -2 0 5 19 15 43 23 49 25 85 8 122
-36 78 -190 70 -227 -12 -40 -87 -32 -183 21 -247 42 -52 106 -80 233 -105 78
-15 137 -34 203 -66 50 -24 92 -47 92 -50 0 -3 -25 -37 -55 -74 -47 -58 -90
-137 -119 -216 -7 -19 -8 -19 -27 5 -52 64 -102 108 -252 221 -200 151 -213
162 -244 223 -66 129 -29 276 115 467 31 42 85 114 120 160 82 108 140 226
155 312 22 129 -22 261 -135 414 -52 70 -258 303 -427 483 l-80 85 -1 -50 c-1
-27 -5 -115 -9 -194 -10 -161 -6 -181 45 -263 l35 -58 -24 -30 c-14 -16 -35
-55 -47 -87 -19 -51 -22 -85 -28 -370 -4 -172 -5 -313 -3 -313 2 0 52 47 110
103 58 57 130 126 159 153 75 68 106 123 99 176 -12 93 -92 149 -179 125 -23
-6 -28 -4 -28 11 0 29 54 97 89 112 72 29 183 -24 228 -109 42 -81 23 -225
-44 -322 -17 -24 -75 -87 -129 -139 -226 -217 -265 -268 -310 -402 -66 -194
-29 -413 90 -528 25 -24 46 -48 46 -53 0 -5 -16 -28 -36 -50 -45 -50 -91 -145
-104 -220 -14 -72 6 -158 52 -230 93 -145 309 -181 450 -74 38 28 128 148 128
169 0 4 -15 8 -32 8 -22 0 -53 14 -93 41 -147 99 -205 113 -264 63 -19 -16
-36 -44 -44 -72 -14 -45 -14 -46 -27 -23 -40 76 -29 142 35 206 124 125 290
117 434 -20 107 -102 141 -197 141 -395 0 -69 -3 -148 -6 -176 l-6 -51 -394 5
c-217 3 -394 3 -395 1 0 -2 -6 -294 -14 -649 -7 -355 -17 -653 -20 -663 -9
-23 -50 -32 -80 -19 -13 6 -32 26 -42 44 -17 31 -18 66 -16 488 2 250 9 658
15 905 7 248 13 628 13 845 l0 395 -38 96 -39 96 32 52 c51 82 71 148 77 246
7 108 -11 190 -62 282 l-35 63 25 36 c65 96 64 62 95 2329 5 391 12 855 16
1033 4 228 3 322 -5 322 -6 0 -24 -24 -40 -52 -17 -30 -77 -99 -137 -157 -58
-57 -119 -124 -135 -150 -27 -42 -35 -65 -53 -143 l-6 -28 -73 6 c-128 11
-205 -43 -257 -182 -10 -24 -8 -25 22 -24 88 5 100 1 143 -44 66 -68 66 -73
55 -583 -11 -514 -30 -1709 -30 -1922 l0 -143 -29 -29 c-37 -36 -52 -36 -91
-1 l-31 27 10 840 c6 462 13 973 16 1135 l5 295 -30 -57 c-27 -51 -162 -198
-182 -198 -15 0 -137 -152 -157 -195 -12 -25 -21 -63 -21 -85 l0 -41 -73 7
c-62 5 -81 3 -119 -14 -73 -32 -124 -84 -147 -152 l-20 -60 50 0 c86 0 145
-34 181 -104 19 -37 19 -58 16 -755 l-3 -716 37 -105 37 -105 -30 -46 c-40
-63 -63 -185 -57 -305 5 -84 9 -98 47 -169 22 -42 41 -84 41 -94 0 -9 -13 -35
-29 -57 -58 -79 -59 -82 -71 -794 -9 -475 -15 -658 -24 -667 -18 -19 -88 20
-141 79 -33 37 -51 69 -67 121 -19 66 -20 83 -14 263 7 209 5 224 -46 271 -31
29 -90 53 -131 53 -46 0 -115 -38 -151 -83 -40 -51 -48 -134 -17 -195 28 -56
55 -72 118 -72 29 0 53 -3 53 -7 0 -11 -61 -115 -112 -190 -54 -80 -82 -169
-76 -239 l3 -44 -37 0 c-48 0 -87 -15 -121 -48 -36 -34 -47 -54 -97 -188 -22
-60 -55 -126 -71 -147 -17 -21 -28 -41 -24 -45 9 -9 1404 -26 1413 -18 5 6 29
1212 31 1589 1 114 2 119 27 142 35 32 54 31 89 -5 l28 -29 -18 -1318 c-17
-1233 -17 -1321 -2 -1368 10 -28 30 -64 45 -81 15 -16 108 -87 207 -158 205
-146 233 -170 249 -209 l13 -28 30 49 c38 61 69 85 210 160 126 69 215 136
256 195 54 80 67 149 77 412 5 132 10 327 10 433 l0 192 45 1 c25 1 54 1 65 1
11 0 63 0 115 -1 l95 -1 0 -192 0 -193 107 -107 108 -108 -113 -113 -112 -112
0 -418 0 -417 -28 0 c-56 0 -173 97 -199 165 -6 17 -14 47 -18 67 -5 34 -9 37
-54 47 -61 13 -135 -4 -230 -54 -149 -78 -243 -182 -306 -337 -28 -69 -39 -84
-62 -92 -100 -31 -138 -62 -174 -141 -22 -46 -24 -92 -7 -146 12 -41 22 -49
32 -24 17 45 136 56 208 19 37 -18 78 -53 78 -66 0 -4 -24 -20 -52 -34 -29
-15 -80 -55 -113 -89 l-60 -62 -87 23 c-359 96 -602 414 -522 683 16 57 77
132 125 157 64 33 153 -1 200 -74 41 -65 38 -77 -11 -52 -44 22 -96 26 -134 8
-68 -30 -93 -190 -46 -296 39 -91 154 -172 242 -172 21 0 21 -2 7 39 -16 45
-4 91 41 158 29 42 40 68 40 96 0 32 3 37 23 37 13 0 46 7 73 15 67 20 154
110 154 159 0 13 -12 16 -56 16 -64 0 -88 14 -220 126 -43 37 -97 75 -119 85
-61 26 -157 41 -189 29 -54 -20 -53 -21 -59 143 -4 129 -10 169 -36 266 -37
137 -68 207 -121 278 -22 29 -40 55 -40 57 0 3 25 38 56 78 82 106 94 134 94
220 0 88 -28 157 -84 205 -43 39 -71 47 -135 41 -114 -11 -184 -131 -133 -227
34 -64 83 -78 186 -55 27 6 28 6 16 -17 -7 -13 -37 -50 -68 -81 l-55 -57 -56
43 c-31 24 -87 62 -126 86 -38 23 -71 43 -73 45 -1 1 3 22 9 46 22 83 -31 149
-121 149 -54 0 -84 -21 -105 -75 -9 -25 -22 -45 -29 -45 -7 0 -39 9 -71 20
-31 11 -114 27 -184 36 -203 26 -299 74 -361 179 l-35 59 -3 -53 c-4 -64 27
-173 69 -247 51 -90 107 -144 217 -209 1 -1 -5 -18 -13 -38 -18 -43 -19 -197
-2 -272 11 -46 14 -50 48 -56 52 -8 120 -51 200 -126 113 -107 184 -228 297
-508 116 -288 156 -363 279 -527 147 -195 334 -359 497 -438 44 -21 143 -58
219 -82 134 -42 138 -44 133 -68 -23 -107 -29 -205 -18 -285 16 -124 94 -273
196 -376 76 -76 193 -150 289 -183 129 -43 306 -46 440 -6 l77 23 42 -29 c71
-49 114 -97 133 -148 16 -42 17 -54 6 -94 -19 -72 -27 -76 -75 -42 -22 16 -61
34 -86 40 -99 25 -112 31 -126 66 -8 19 -19 34 -25 34 -5 0 -22 -25 -36 -56
-35 -77 -35 -161 0 -231 35 -68 75 -99 163 -125 65 -19 74 -25 74 -45 0 -13 9
-41 19 -61 20 -38 110 -130 148 -151 12 -6 43 -41 69 -77 l47 -66 23 43 c12
24 68 89 124 144 86 85 103 108 116 151 14 50 16 52 58 58 80 12 164 86 196
171 17 43 14 135 -6 183 -9 23 -18 42 -21 42 -2 0 -19 -15 -36 -33 -26 -27
-43 -35 -85 -41 -84 -11 -128 -33 -147 -72 -9 -19 -18 -34 -20 -34 -12 0 -35
64 -35 97 1 86 81 190 194 249 l55 29 88 -30 c79 -27 101 -30 208 -30 108 0
129 4 206 31 234 83 389 260 455 519 26 102 26 107 11 315 l-2 34 90 13 c50 7
119 22 155 34 82 27 247 109 325 162 57 38 305 281 305 298 0 5 20 33 45 63
50 61 155 266 235 456 63 151 169 365 209 423 48 70 155 163 226 197 91 43
130 81 155 146 24 65 25 104 4 159 -31 80 -31 81 24 109 95 48 186 179 222
322 24 92 25 147 5 164 -22 18 -65 96 -85 156 -27 77 -37 143 -55 339 -16 191
-30 247 -86 356 -111 214 -304 358 -538 401 -58 11 -112 22 -119 24 -10 3 -11
46 -6 202 8 233 -7 354 -57 447 -16 30 -29 61 -29 68 0 7 14 26 30 42 44 42
83 167 84 270 1 69 -5 97 -43 211 l-44 131 30 61 c17 34 36 92 42 129 7 39 17
358 25 745 l13 677 24 47 c35 70 86 106 155 112 l56 5 -7 36 c-9 48 -36 90
-89 139 -52 48 -117 65 -195 53 l-51 -8 0 43 c0 69 -51 149 -210 329 -80 90
-147 164 -150 164 -3 1 -15 -510 -27 -1135 -16 -825 -25 -1140 -34 -1150 -6
-8 -27 -14 -45 -14 -28 0 -36 6 -50 32 -16 30 -16 89 -5 818 16 1045 30 1716
37 1765 15 100 83 160 182 159 62 0 64 7 27 83 -44 88 -140 139 -246 130 l-66
-6 -6 58 c-7 86 -33 125 -159 243 -63 58 -132 134 -154 167 -21 33 -42 60 -46
61 -5 0 -8 -55 -8 -122 0 -68 -11 -861 -26 -1763 -14 -902 -23 -1669 -19
-1703 5 -44 18 -84 42 -129 l35 -66 -31 -67 c-24 -51 -34 -93 -43 -174 -15
-132 -4 -207 46 -312 l35 -75 -35 -49 c-43 -60 -60 -112 -68 -211 -4 -41 -13
-420 -21 -844 -36 -1814 -31 -1675 -56 -1701 -29 -31 -54 -30 -85 3 l-26 28 6
585 c4 322 9 613 12 648 l6 62 -354 0 c-194 0 -383 3 -421 7 l-67 6 5 166 c4
99 12 191 22 229 40 163 209 318 360 330 111 9 218 -42 254 -121 23 -52 24
-89 3 -144 -19 -48 -34 -56 -34 -17 0 39 -68 104 -109 104 -40 0 -60 -10 -135
-69 -58 -45 -60 -46 -132 -46 -41 0 -74 -1 -74 -3 0 -20 50 -89 92 -127 78
-71 126 -89 228 -90 77 0 92 3 153 33 77 38 116 83 143 164 44 132 -7 304
-111 375 l-38 26 34 29 c86 75 122 117 153 179 45 90 63 191 47 261 -24 109
-145 285 -332 484 -99 106 -138 156 -166 211 -34 68 -35 76 -31 150 13 213
187 326 309 201 51 -53 49 -74 -9 -70 -82 7 -152 -66 -152 -157 0 -76 23 -109
168 -247 76 -72 149 -148 162 -168 14 -20 28 -36 32 -36 5 0 7 150 5 333 l-2
332 -26 56 c-20 41 -39 65 -74 89 l-47 32 56 51 c86 80 99 119 104 312 2 88 3
168 1 178 -5 24 -604 -605 -636 -666 -38 -75 -57 -157 -57 -247 0 -156 46
-259 216 -488 138 -185 172 -251 177 -350 3 -66 0 -79 -28 -137 -39 -78 -77
-112 -239 -213 -68 -42 -166 -112 -218 -154 -51 -43 -96 -78 -98 -78 -2 0 -16
32 -31 70 -16 41 -50 100 -81 139 -30 38 -54 74 -54 79 0 18 126 66 260 99
151 37 246 79 284 124 35 42 60 129 51 182 -15 86 -105 137 -179 102 -65 -31
-88 -124 -45 -179 33 -42 14 -43 -59 -4 l-67 37 -6 68 c-13 137 -49 224 -139
336 -34 43 -61 79 -59 81 2 2 43 16 90 30 l86 26 7 47 c3 25 6 194 6 376 l0
330 -104 106 -104 106 94 87 95 87 148 -152 149 -152 53 50 c30 27 131 124
226 215 l171 167 -214 214 -214 214 -156 -155 -156 -155 -89 95 c-49 52 -89
98 -89 101 0 9 241 253 274 278 l28 21 -70 77 c-39 43 -105 112 -146 153 -42
41 -76 77 -76 81 0 4 20 23 45 43 l45 37 87 -76 c58 -50 119 -91 178 -120 79
-39 105 -47 209 -60 66 -9 121 -17 123 -19 2 -1 -6 -24 -18 -50 -44 -100 -7
-186 191 -440 l135 -173 7 51 c3 28 6 127 7 219 l1 169 -34 34 c-42 42 -82 45
-124 9 -17 -14 -32 -25 -35 -25 -3 0 -8 16 -11 35 -9 44 24 116 95 209 93 123
126 226 108 337 -31 196 -158 299 -366 299 -60 0 -73 3 -73 16 0 9 25 59 55
112 91 163 96 294 19 517 -20 58 -34 109 -30 112 11 11 81 -16 117 -46 20 -17
47 -52 59 -78 25 -53 28 -103 20 -343 -4 -121 -2 -140 16 -180 48 -104 141
-141 202 -80 53 53 51 101 -6 163 -19 20 -35 27 -64 27 -30 0 -38 4 -38 18 0
9 29 77 65 151 82 168 99 225 93 310 -6 84 -31 140 -96 215 l-50 60 25 33 c32
42 73 171 80 253 5 56 1 79 -24 151 -54 158 -136 249 -280 309 -66 28 -69 30
-90 86 -13 32 -35 71 -50 87 -44 45 -160 98 -232 104 -52 5 -61 9 -56 22 55
134 59 148 59 231 0 63 -6 102 -22 152 -24 68 -37 86 -216 285 -43 48 -106
125 -139 171 -34 45 -64 82 -67 82 -3 0 -15 -17 -26 -38z m116 -504 c65 -33
100 -105 100 -205 0 -91 -20 -147 -89 -244 -75 -108 -107 -143 -125 -136 -24
10 -93 104 -128 175 -30 62 -33 75 -33 167 0 90 3 104 27 145 65 112 153 146
248 98z m-330 -632 c19 -13 53 -39 74 -58 l40 -35 -50 -49 c-39 -38 -109 -120
-131 -153 -1 -2 -21 9 -43 24 -113 78 -128 240 -29 293 32 17 95 7 139 -22z
m620 -15 c69 -50 64 -121 -15 -197 -86 -85 -79 -86 -173 21 l-82 94 33 27 c17
15 59 40 92 56 66 32 101 31 145 -1z m415 -75 c9 -13 32 -63 52 -112 32 -79
35 -94 31 -159 -8 -128 -83 -252 -206 -343 -38 -29 -73 -52 -78 -52 -11 0 -52
65 -89 140 -15 30 -43 77 -62 103 -19 27 -33 50 -31 51 2 2 47 27 102 57 149
82 202 151 222 292 5 37 10 47 25 47 10 0 26 -11 34 -24z m-1581 -22 c3 -9 6
-27 6 -40 0 -40 48 -124 104 -180 36 -36 80 -65 142 -94 49 -23 91 -44 93 -46
4 -3 -132 -208 -166 -251 l-18 -23 -53 25 c-63 29 -170 132 -201 193 -34 67
-54 159 -47 215 10 72 42 149 77 185 35 35 54 40 63 16z m853 -191 l52 -65
-71 -61 c-39 -34 -72 -61 -75 -61 -2 1 -31 22 -63 47 -47 37 -57 50 -53 67 9
34 127 152 144 145 8 -4 37 -36 66 -72z m232 -380 c45 -98 81 -181 81 -185 0
-4 -34 -28 -75 -53 -145 -91 -204 -155 -265 -288 -33 -72 -37 -76 -67 -77 -32
0 -35 4 -78 95 -39 81 -60 111 -143 196 -53 56 -114 112 -134 126 -28 17 -38
30 -38 50 0 26 42 109 108 211 32 52 35 54 68 47 56 -10 124 -43 124 -60 0 -8
-8 -15 -19 -15 -29 0 -68 -36 -75 -71 -4 -21 0 -45 13 -73 18 -41 166 -216
182 -216 15 0 159 174 180 217 27 57 17 91 -37 118 -21 11 -41 21 -43 23 -2 1
2 14 10 28 12 24 105 103 120 104 3 0 43 -80 88 -177z m-639 -450 c47 -52 110
-147 110 -165 0 -4 -11 -10 -25 -14 -63 -16 -103 -120 -70 -183 19 -38 69 -71
108 -71 26 0 27 -2 27 -53 0 -82 -56 -267 -81 -267 -5 0 -34 37 -64 83 -136
204 -201 483 -164 707 l12 69 47 -24 c26 -13 71 -50 100 -82z m784 65 c4 -13
10 -70 13 -128 7 -127 -14 -249 -60 -359 -30 -73 -118 -213 -176 -279 l-29
-34 -32 84 c-18 45 -38 110 -44 143 l-13 60 45 11 c100 26 129 150 53 228 -17
18 -31 41 -31 53 0 12 18 45 41 73 113 144 215 208 233 148z m-464 -666 c11
-46 38 -124 59 -173 l39 -89 -58 -62 -57 -62 -49 41 c-27 22 -59 52 -71 65
l-23 24 43 85 c24 47 54 125 67 173 12 47 24 85 26 84 1 -2 12 -40 24 -86z
m-487 -236 c127 -48 142 -71 79 -128 -51 -46 -114 -75 -203 -94 -116 -24 -203
-3 -234 56 -19 37 -19 56 4 106 45 100 186 124 354 60z m1224 19 c158 -73 105
-265 -72 -265 -25 0 -73 9 -108 21 -111 38 -249 131 -233 158 10 16 111 71
169 91 77 28 178 26 244 -5z m-668 -511 l85 -85 -91 -91 -91 -91 -91 83 c-50
46 -91 88 -91 94 0 17 163 176 180 176 8 0 53 -39 99 -86z m-634 -609 c41 -40
75 -83 75 -93 0 -11 -35 -53 -81 -97 l-81 -77 -91 88 c-50 49 -94 91 -97 93
-10 7 163 161 182 161 10 0 53 -34 93 -75z m612 -7 c46 -46 83 -88 83 -95 0
-7 -39 -51 -87 -98 l-88 -85 -94 95 -95 96 84 84 c47 47 91 85 100 85 8 0 52
-37 97 -82z m636 -7 c42 -43 77 -82 77 -85 0 -11 -90 -104 -141 -147 l-47 -39
-83 86 c-46 47 -86 90 -88 96 -7 22 156 168 188 168 10 0 52 -35 94 -79z
m-646 -593 l83 -83 0 -146 c0 -80 -3 -200 -6 -266 l-7 -120 -89 -41 -89 -41
-79 42 -80 41 0 265 0 266 88 82 c48 45 89 82 92 83 2 0 42 -37 87 -82z
m-1883 -729 c37 -29 33 -83 -6 -112 -34 -25 -70 -16 -101 25 -18 24 -18 30 -7
58 22 53 68 65 114 29z m3696 -49 c44 -44 11 -120 -52 -120 -17 0 -40 7 -50
17 -23 20 -24 85 -2 107 22 23 80 20 104 -4z m-1866 -183 c57 -75 71 -123 70
-247 0 -138 -21 -203 -89 -277 l-43 -48 -37 35 c-20 19 -51 64 -68 100 -30 60
-32 72 -32 165 0 87 3 107 26 155 32 66 104 150 129 150 11 0 30 -15 44 -33z
m1852 -472 c15 -23 16 -78 9 -635 l-7 -610 -69 0 -69 0 0 123 c1 67 5 342 10
610 10 546 8 537 75 537 26 0 39 -6 51 -25z m-1873 -375 c46 -54 87 -137 107
-216 18 -68 20 -111 20 -351 l0 -273 -176 0 -176 0 5 283 c3 253 6 289 26 356
27 92 52 141 98 191 42 48 63 50 96 10z m2477 -582 c99 -49 143 -100 174 -197
14 -45 26 -86 26 -92 0 -5 -68 -9 -166 -9 l-167 0 5 153 c3 85 8 159 12 165
12 20 50 14 116 -20z m-2370 -891 l0 -153 -78 -82 c-44 -45 -83 -82 -89 -82
-5 0 -46 38 -91 84 l-82 84 0 151 0 151 170 0 170 0 0 -153z m502 -347 l-4
-489 25 -43 c29 -50 71 -82 257 -204 163 -106 186 -124 227 -181 l32 -45 20
39 c33 66 100 117 259 197 167 85 220 128 258 210 23 51 24 59 34 521 6 258
13 471 16 474 6 7 1432 -18 1477 -26 22 -3 37 -11 37 -20 0 -22 -79 -121 -115
-143 -59 -36 -118 -51 -290 -71 -239 -27 -229 -28 -249 25 -32 84 -130 100
-193 31 -27 -28 -33 -43 -33 -78 0 -24 7 -52 15 -63 8 -10 15 -22 15 -26 0 -3
-30 -20 -67 -38 -37 -17 -90 -48 -118 -69 -72 -54 -78 -55 -127 -18 -40 30
-96 112 -86 123 3 2 28 -1 56 -7 63 -13 111 6 142 56 66 107 -51 241 -190 219
-55 -9 -89 -40 -130 -115 -30 -57 -32 -67 -28 -130 6 -82 36 -148 108 -237
l52 -63 -39 -46 c-72 -85 -92 -118 -122 -193 -42 -106 -58 -202 -66 -381 l-7
-156 -56 23 c-33 13 -78 24 -106 24 -87 0 -124 -18 -218 -108 -98 -92 -129
-109 -236 -126 l-73 -11 28 -55 c22 -44 39 -62 83 -87 34 -21 67 -33 90 -33
40 0 60 -14 60 -42 0 -10 24 -45 54 -77 57 -62 73 -102 64 -161 -6 -38 4 -38
68 0 99 56 154 156 154 276 0 61 -2 68 -33 99 -44 44 -77 52 -130 31 -53 -20
-57 -20 -57 0 0 35 44 94 85 114 75 36 157 17 222 -51 48 -51 67 -103 66 -184
-4 -249 -207 -466 -532 -569 -63 -20 -121 -36 -129 -36 -8 0 -42 25 -75 57
-34 31 -90 69 -124 86 l-63 29 42 32 c69 53 102 66 164 66 45 0 69 -6 111 -30
l53 -30 11 27 c16 42 3 121 -29 172 -34 55 -105 102 -167 108 l-45 6 0 42 c0
23 -6 62 -13 86 -18 57 -97 170 -153 217 -106 89 -247 152 -339 152 -42 0 -43
-1 -54 -44 -17 -69 -88 -156 -154 -189 -93 -47 -89 -58 -88 218 1 132 4 320 8
418 l6 178 -64 67 c-35 37 -84 88 -108 114 l-44 47 107 103 106 103 7 188 6
187 166 0 167 0 -4 -490z m-3159 14 c29 -15 72 -42 97 -62 25 -20 47 -37 49
-39 2 -2 -27 -36 -66 -76 -39 -39 -82 -95 -96 -124 -15 -28 -30 -54 -35 -57
-5 -3 -28 8 -53 25 -90 60 -250 84 -373 55 -38 -9 -72 -14 -75 -10 -12 12 86
89 135 107 27 9 98 24 158 32 59 7 118 21 132 30 41 27 57 61 50 105 -8 49 3
51 77 14z m5082 -182 c36 -15 96 -27 157 -33 54 -5 116 -17 138 -25 52 -21
100 -76 100 -114 0 -17 -2 -30 -5 -30 -3 0 -32 11 -65 25 -105 44 -248 29
-351 -36 -25 -16 -49 -29 -52 -29 -4 0 -34 42 -68 93 -34 50 -80 112 -103 136
-22 24 -36 45 -31 47 6 3 46 24 90 49 l80 44 26 -52 c23 -47 31 -54 84 -75z
m-2513 -129 l78 -78 0 -220 0 -220 -85 -85 c-81 -81 -85 -83 -109 -70 -14 7
-55 46 -92 87 l-67 75 7 216 7 217 77 78 c42 42 83 77 92 77 8 0 50 -35 92
-77z m-2193 -50 l40 -67 -34 -37 c-65 -73 -53 -150 33 -197 54 -30 54 -31 1
-322 -23 -124 -44 -272 -48 -330 l-6 -105 -44 55 c-34 43 -181 321 -181 343 0
3 21 8 47 12 58 8 105 52 124 114 12 39 10 51 -22 159 -30 102 -34 131 -34
227 1 136 23 215 60 215 19 0 33 -15 64 -67z m4293 0 c32 -70 29 -166 -10
-329 -54 -225 -40 -320 57 -369 46 -23 51 -28 51 -59 0 -59 -111 -246 -189
-320 l-31 -30 0 60 c0 107 -20 245 -51 363 -34 129 -50 291 -30 315 6 7 25 16
42 20 61 12 106 97 80 153 -7 14 -23 34 -36 45 -14 11 -25 26 -25 34 0 40 83
164 110 164 6 0 20 -21 32 -47z m-2842 -559 c0 -3 -9 -19 -20 -34 -33 -47 -51
-111 -51 -186 0 -132 64 -239 166 -278 l46 -18 -7 -71 c-5 -62 -3 -83 20 -152
15 -44 40 -96 56 -117 35 -43 32 -45 -68 -54 -80 -8 -163 11 -249 55 -63 32
-154 109 -138 117 63 28 115 86 115 129 0 11 -18 72 -40 135 -47 135 -51 200
-19 285 26 71 77 144 119 173 31 20 70 30 70 16z m1383 -92 c85 -87 98 -202
42 -386 -51 -168 -45 -220 27 -257 44 -22 45 -27 18 -62 -52 -66 -194 -127
-297 -127 -55 0 -140 17 -148 29 -2 4 13 32 35 62 52 74 74 154 66 241 l-6 68
47 24 c96 49 148 126 175 264 9 43 8 64 -6 112 -19 72 -19 70 -3 70 7 0 30
-17 50 -38z m-569 -91 c-1 -52 -7 -58 -39 -37 -30 20 -32 39 -4 67 29 29 44
19 43 -30z m-316 17 c19 -19 14 -44 -12 -61 -30 -20 -36 -14 -36 35 0 30 4 38
18 38 10 0 23 -5 30 -12z m202 -200 c28 -29 50 -57 50 -62 0 -14 -102 -116
-116 -116 -13 0 -114 104 -114 118 0 19 92 112 111 112 11 0 42 -23 69 -52z
m-221 -259 c38 -38 38 -48 3 -82 -47 -45 -62 -33 -62 52 0 71 12 77 59 30z
m356 1 c7 -11 -12 -79 -25 -93 -9 -10 -47 12 -55 32 -6 16 41 71 61 71 7 0 16
-5 19 -10z m-146 -215 c23 -25 40 -49 37 -53 -86 -142 -106 -177 -106 -186 -1
-6 -17 23 -38 64 -20 41 -44 85 -52 98 -14 22 -13 25 37 72 28 28 58 50 66 50
8 0 33 -20 56 -45z m-1040 -38 c20 -18 66 -50 104 -72 37 -21 67 -42 67 -46 0
-10 -128 -16 -215 -10 l-80 6 1 32 c2 41 49 123 71 123 8 0 32 -15 52 -33z
m2003 -4 c20 -23 53 -91 62 -126 5 -20 2 -29 -8 -33 -17 -6 -260 21 -276 31
-16 10 167 145 196 145 6 0 18 -8 26 -17z m-1223 -190 c38 -53 53 -103 31
-103 -5 0 -25 -14 -44 -30 -50 -45 -69 -102 -64 -197 3 -69 7 -83 37 -127 18
-26 34 -59 34 -73 0 -29 -76 -129 -122 -160 -43 -29 -57 -21 -109 57 -58 87
-77 148 -76 255 0 77 4 99 27 149 38 81 206 286 236 286 5 0 28 -25 50 -57z
m542 -61 c131 -135 166 -228 140 -378 -15 -81 -43 -140 -108 -228 l-47 -63
-48 29 c-57 35 -128 113 -128 140 0 11 16 38 34 60 42 49 66 115 66 181 0 74
-19 123 -67 177 -24 26 -43 51 -43 56 0 18 82 114 98 114 9 0 56 -40 103 -88z
m-1121 -44 c0 -7 -12 -30 -27 -51 -26 -38 -27 -45 -29 -176 -1 -75 -8 -149
-14 -166 -6 -16 -30 -49 -52 -72 -40 -41 -41 -43 -24 -62 32 -35 79 -51 133
-44 l50 5 24 -43 c14 -26 44 -57 73 -76 l48 -33 -93 0 c-78 0 -109 5 -178 30
-118 41 -241 130 -241 175 0 8 20 28 44 44 91 63 99 176 26 348 -23 52 -38 98
-35 102 4 3 61 11 128 17 170 15 167 15 167 2z m1813 -38 c4 -4 -11 -43 -34
-86 -38 -72 -43 -87 -47 -166 -3 -58 0 -98 8 -118 17 -40 75 -90 105 -90 13 0
27 -5 31 -11 12 -20 -76 -95 -165 -142 -108 -58 -182 -77 -289 -77 l-84 0 46
51 c25 28 46 57 46 64 0 22 16 26 65 15 56 -12 113 1 151 36 l25 24 -25 37
c-42 63 -54 114 -66 273 -6 84 -14 165 -17 182 l-6 30 124 -7 c68 -4 128 -11
132 -15z m-1079 -594 l19 -38 21 38 c22 39 42 51 61 36 6 -4 39 -38 75 -75
l64 -67 -76 -78 c-60 -60 -85 -95 -114 -157 l-37 -80 -12 45 c-20 75 -54 132
-122 201 l-65 66 74 76 c40 41 78 74 83 73 6 -1 18 -19 29 -40z m27 -593 c6
-21 21 -56 31 -77 17 -32 18 -43 8 -62 -19 -34 -63 -49 -100 -34 -44 18 -47
48 -12 112 16 30 31 65 34 76 9 33 25 26 39 -15z"/>
<path d="M6485 11845 c-30 -30 -32 -64 -4 -99 27 -35 63 -34 100 3 35 36 37
60 4 95 -30 33 -68 34 -100 1z"/>
</g>
</svg>
